<svg width="114" height="125" viewBox="0 0 114 125" xmlns="http://www.w3.org/2000/svg" xmlns:xlink="http://www.w3.org/1999/xlink"><title>Icon</title><defs><path id="a" d="M0 .002v105.03h81.032V.003z"/></defs><g fill="none" fill-rule="evenodd"><path fill="#F1F0F0" d="M49.913 11.537v17.305H67.19"/><path fill="#F1F0F0" d="M51.833 0v23.794H75.52"/><g transform="translate(0 .96)"><mask id="b" fill="#fff"><use xlink:href="#a"/></mask><path d="M80.468 103.09l.564-33.883v-43.92c0-.517-.2-1.01-.564-1.376L57.316.57a1.916 1.916 0 0 0-1.362-.568H1.927C.862.002-.003.87-.003 1.947V103.09c0 1.074.865 1.945 1.93 1.945h52.387" fill="#FCB71A" mask="url(#b)"/></g><path fill="#FFF" d="M54.894 3.586v23.632H78.42"/><path d="M111.428 49.938a5.499 5.499 0 0 1 0 7.755l-5.42 5.423-17.663-17.69 5.42-5.423c2.06-2.065 5.682-2.062 7.74 0l9.923 9.935zM49.15 104.594v9.477l3.553 2.376 44.842-44.863-7.723-7.726m-42.884 38.52L87.61 61.642l-7.74-7.74-44.816 44.84 2.42 3.636m44.61-50.69l17.674 17.68 4.036-4.035L86.13 47.64m-40.11 57.87h-9.383c-.522 0-1.01-.262-1.3-.697l-1.834-2.754-2.77 9.423 9.264 9.274 9.384-2.763-2.66-1.78c-.44-.29-.7-.78-.7-1.303v-9.4zm-19.144 19.112l9.7-2.857-6.847-6.86" fill="#FCB71A" style="mix-blend-mode:multiply"/></g></svg>