<svg width="120" height="123" viewBox="0 0 120 123" xmlns="http://www.w3.org/2000/svg"><title>Icon</title><g fill="none" fill-rule="evenodd"><path d="M82.547 80.203V25.46c0-.52-.202-1.017-.568-1.386L58.667.574a1.929 1.929 0 0 0-1.37-.572H2.9C1.83.002.96.875.96 1.96v101.836c0 1.08.87 1.96 1.943 1.96H82.55V80.202z" fill="#DA6A26"/><path fill="#FFF" d="M56 2v23.794h23.687"/><path d="M106.395 85.495a.64.64 0 0 0-.64-.64h-9.69l4.844-8.407a.641.641 0 0 0-.235-.876l-7.758-4.486a.639.639 0 0 0-.875.234L87.2 79.727l-4.85-8.407a.64.64 0 0 0-.874-.234l-7.758 4.486a.649.649 0 0 0-.3.39.649.649 0 0 0 .065.486l4.846 8.406h-9.69a.64.64 0 0 0-.64.64v8.974c0 .354.287.64.64.64h9.69l-4.845 8.408a.645.645 0 0 0-.064.485.654.654 0 0 0 .3.39l7.758 4.487a.635.635 0 0 0 .486.063.634.634 0 0 0 .388-.297l4.847-8.408 4.844 8.407a.64.64 0 0 0 .874.234l7.758-4.485a.654.654 0 0 0 .3-.39.644.644 0 0 0-.065-.484l-4.845-8.407h9.69c.353 0 .64-.288.64-.642v-8.973z" fill="#DA6A26" style="mix-blend-mode:multiply"/><path d="M87.077 61.846c-15.57 0-28.238 12.687-28.238 28.282 0 15.594 12.667 28.282 28.237 28.282 15.57 0 28.237-12.688 28.237-28.282 0-15.595-12.667-28.282-28.237-28.282m0 60.41C69.39 122.255 55 107.842 55 90.127 55 72.412 69.39 58 87.077 58c17.687 0 32.077 14.412 32.077 32.128 0 17.715-14.39 32.127-32.077 32.127" style="mix-blend-mode:multiply" fill="#DA6A26"/></g></svg>