<svg width="150" height="123" viewBox="0 0 150 123" xmlns="http://www.w3.org/2000/svg"><title>Icon</title><g fill="#736B54" fill-rule="evenodd"><path d="M87.212 25.508H76.586V14.773a2.138 2.138 0 0 0-2.126-2.147H27.148a2.137 2.137 0 0 1-2.125-2.147V8.33H.07V66.3c0 .486.064.98.158 1.478.012.073.02.142.038.215a9.85 9.85 0 0 0 .528 1.683c.19.472.416.945.676 1.4.037.07.08.133.118.197.57.954 1.28 1.855 2.1 2.654.055.052.11.108.165.163.4.374.83.717 1.27 1.035.078.056.155.108.23.16.456.308.932.583 1.42.82.065.03.128.055.192.085a9.63 9.63 0 0 0 1.608.575v-4.531c-.048-.02-.09-.05-.137-.073-.102-.05-.2-.116-.298-.17a7.333 7.333 0 0 1-.705-.452c-.102-.078-.204-.15-.306-.232a8.368 8.368 0 0 1-.668-.61c-.07-.07-.137-.13-.2-.197a8.589 8.589 0 0 1-.736-.905c-.05-.073-.09-.146-.136-.22a8.67 8.67 0 0 1-.442-.764c-.055-.106-.102-.214-.15-.32-.1-.24-.186-.477-.258-.714-.03-.103-.064-.206-.09-.305a4.365 4.365 0 0 1-.127-.97V14.774c0-1.185.953-2.147 2.126-2.147h12.2c1.174 0 2.126.962 2.126 2.147v2.147h51.561v8.587H19.2a2.138 2.138 0 0 0-2.126 2.148V66.3c0 2.084-1.922 4.772-4.25 5.897-.69.33-1.408.545-2.127.545a2.137 2.137 0 0 0-2.125 2.147c0 1.184.952 2.146 2.125 2.146H71.13c10.382 0 18.208-7.386 18.208-17.176V27.655a2.137 2.137 0 0 0-2.126-2.147"/><path d="M141.308 61.08h-4.25V50.343a2.138 2.138 0 0 0-2.127-2.147H87.62a2.136 2.136 0 0 1-2.126-2.147v-2.147H60.54v57.969c0 .486.064.98.157 1.478.012.073.02.14.037.214.102.477.247.954.425 1.426l.102.258c.192.472.417.944.676 1.4.04.068.08.132.12.197.57.953 1.28 1.855 2.1 2.654.055.05.11.106.165.162.4.373.83.717 1.27 1.035a11.137 11.137 0 0 0 1.65.978c.71.318 1.242.52 1.79.658l.008-1.873v-2.653c-.238-.125-.335-.19-.433-.245a6.899 6.899 0 0 1-.706-.45c-.102-.078-.204-.15-.306-.233a8.37 8.37 0 0 1-.667-.61c-.067-.07-.135-.13-.2-.198a8.813 8.813 0 0 1-.734-.906c-.05-.073-.09-.146-.136-.22a8.511 8.511 0 0 1-.442-.763 5.438 5.438 0 0 1-.15-.322c-.1-.24-.186-.476-.26-.712-.028-.103-.062-.206-.088-.305a4.373 4.373 0 0 1-.127-.97v-51.53c0-1.184.952-2.146 2.125-2.146h12.2c1.173 0 2.125.962 2.125 2.147v2.147h51.565v8.591H79.67c-1.173 0-2.125.963-2.125 2.148v38.646c0 2.083-1.92 4.77-4.25 5.896-.69.33-1.408.545-2.126.545a2.138 2.138 0 0 0-2.127 2.147c0 1.186.953 2.147 2.126 2.147h60.435c10.38 0 18.205-7.385 18.205-17.176V63.227a2.138 2.138 0 0 0-2.126-2.147h-6.376z" style="mix-blend-mode:multiply"/><path d="M46.93 110.533l-8.62-8.786c-.67-.69-1.76-.69-2.436 0a1.782 1.782 0 0 0 0 2.485l5.678 5.788h-7.906c-2.737 0-5.17-2.778-5.17-4.968V88.924c0-.97-.773-1.758-1.725-1.758-.95 0-1.723.788-1.723 1.758v16.128c0 4.36 4.19 8.484 8.62 8.484h7.905l-5.678 5.79a1.783 1.783 0 0 0 0 2.486 1.702 1.702 0 0 0 2.437 0l8.62-8.79a1.786 1.786 0 0 0 0-2.49M97.19 12.433l8.62 8.787c.672.69 1.76.69 2.437 0a1.785 1.785 0 0 0 0-2.486l-5.678-5.787h7.904c2.738 0 5.172 2.777 5.172 4.968v16.127c0 .97.772 1.758 1.723 1.758.95 0 1.723-.787 1.723-1.758V17.915c0-4.36-4.19-8.484-8.62-8.484h-7.904l5.677-5.79a1.785 1.785 0 0 0 0-2.486 1.704 1.704 0 0 0-2.438.001l-8.62 8.79a1.729 1.729 0 0 0-.372.573c-.176.43-.176.914 0 1.343.086.215.214.412.372.573"/></g></svg>