<svg width="45" height="35" viewBox="0 0 45 35" xmlns="http://www.w3.org/2000/svg" xmlns:xlink="http://www.w3.org/1999/xlink"><title>pwc_logo</title><defs><path id="a" d="M0 34.542h45V0H0z"/></defs><g fill="none" fill-rule="evenodd"><path d="M4.118 29.642c.226.035.33.035.47.035 1.79 0 2.745-1.112 2.745-3.198 0-1.773-.782-2.71-2.225-2.71-.243 0-.486.016-.99.085v5.787zm-4.084 3.98l.99-.087.192-.226v-9.54H0v-.836l3.214-1.025h.904v1.163c1.6-.938 2.224-1.18 3.04-1.18 1.912 0 3.372 1.806 3.372 4.187 0 2.78-1.998 4.64-4.952 4.64-.348 0-.904-.035-1.46-.087v2.676l.226.225 1.147.086-.034.922H.034v-.92zm14.394-11.678c.14.626.21 1.095.226 1.477l.19 4.24 2.538-4.795v-.504l2.624-.207.33 6.603 2.242-3.11-.487-3.198c.47-.417.8-.556 1.34-.556.85 0 1.424.54 1.424 1.355 0 .852-.47 1.86-1.633 3.476-.364.504-1.442 1.842-3.214 3.996h-2.05l-.4-5.978-3.25 5.977H12.1l.173-.782-.278-6.29-1.72-.28v-.694l3.145-.73h1.008zm15.842.886c-1.478.226-2.243 1.32-2.243 3.215 0 1.91 1.026 3.18 2.555 3.18.73 0 1.39-.226 2.745-.886v1.545c-1.65.747-2.606.973-3.944.973-1.442 0-2.45-.382-3.284-1.216-.836-.834-1.27-1.93-1.27-3.163 0-2.73 2.05-4.588 5.057-4.588 1.998 0 3.37.903 3.37 2.206 0 .87-.642 1.443-1.598 1.443-.487 0-.887-.12-1.39-.416V22.83z" fill="#FFF"/><mask id="b" fill="#fff"><use xlink:href="#a"/></mask><path fill="#FFF" mask="url(#b)" d="M20.198 17.002h8.5V14.76h-8.5M28.7 1.776h8.313V0H28.7m8.313 4.343h1.542V1.775h-1.542"/><path fill="#FFF" mask="url(#b)" d="M28.7 4.343h8.313V1.775H28.7m9.855 8.922h4.204V4.344h-4.205"/><path fill="#FFF" mask="url(#b)" d="M37.013 10.697h1.542V4.344h-1.542"/><path fill="#FFF" mask="url(#b)" d="M33.837 10.697h3.176V4.344H28.7v4.25h5.137m8.923 6.166H45v-4.064h-2.24m-4.205 4.064h4.204v-4.064h-4.205"/><path fill="#FFF" mask="url(#b)" d="M37.013 14.76h1.542v-4.064h-1.542"/><path fill="#FFF" mask="url(#b)" d="M33.837 14.76h3.176v-4.064h-3.176m-5.137 0h5.137V8.594H28.7m0 6.166h5.137v-4.064H28.7"/></g></svg>