<svg width="118" height="118" viewBox="0 0 118 118" xmlns="http://www.w3.org/2000/svg"><title>Icon</title><g fill="#80141D" fill-rule="evenodd"><path d="M58.222 71.702l-15.747 16.35a21.46 21.46 0 0 1-4.67 22.467c-6.096 6.33-15.306 8.297-23.465 5.003a1.94 1.94 0 0 1-1.18-1.455c-.12-.655.11-1.33.6-1.782l9.797-8.964-.154-8.83-8.812.155-8.585 10.135c-.43.51-1.09.76-1.75.668a1.951 1.951 0 0 1-1.496-1.135 21.759 21.759 0 0 1-1.86-8.41 21.462 21.462 0 0 1 6.027-15.292c5.79-6.016 14.388-8.092 22.222-5.464L44.9 58.8l12.836-13.382 15.678-16.32c-2.916-7.803-1.182-16.494 4.58-22.47C84.06.327 93.2-1.636 101.278 1.625a1.946 1.946 0 0 1 .557 3.258l-10.133 8.97.166 9.54 9.508-.167 8.585-10.47a1.93 1.93 0 0 1 1.76-.69c.663.09 1.236.518 1.506 1.135 3.556 8.03 1.957 16.966-4.174 23.33-5.79 6.015-14.39 8.092-22.227 5.46L71.082 58.34 58.222 71.7z"/><path d="M88.35 74.328a21.466 21.466 0 0 1 22.383 5.06c6.225 6.207 8.03 15.45 4.594 23.55-.26.612-.82 1.05-1.476 1.154a1.953 1.953 0 0 1-1.77-.63l-8.79-9.953h-8.83v8.812l9.982 8.762c.5.438.742 1.104.637 1.762a1.949 1.949 0 0 1-1.162 1.475 21.785 21.785 0 0 1-8.442 1.713 21.46 21.46 0 0 1-15.183-6.292c-5.914-5.892-7.84-14.527-5.075-22.313L59.146 71.393 45.99 58.325l-16.045-15.96c-7.852 2.78-16.51.894-22.386-4.972-6.195-6.176-7.997-15.35-4.595-23.368a1.944 1.944 0 0 1 3.265-.498l8.792 10.286h9.54v-9.51L14.246 5.54a1.928 1.928 0 0 1-.66-1.77c.1-.662.54-1.227 1.16-1.487C22.836-1.133 31.744.62 38 6.863c5.914 5.893 7.84 14.528 5.072 22.318l16.072 16.026 29.21 29.122z" style="mix-blend-mode:multiply"/></g></svg>