<svg width="120" height="123" viewBox="0 0 120 123" xmlns="http://www.w3.org/2000/svg"><title>Icon</title><g fill="none" fill-rule="evenodd"><path d="M82.547 80.203V25.46c0-.52-.202-1.017-.568-1.386L58.667.574c-.365-.368-.858-.572-1.37-.572H2.9C1.83.002.96.875.96 1.96v101.836c0 1.08.87 1.96 1.943 1.96h79.647V80.202z" fill="#DA6A26"/><path fill="#FFF" d="M56 2v23.794h23.687"/><path d="M106.395 85.495c0-.354-.287-.64-.64-.64h-9.69l4.844-8.407c.177-.306.072-.7-.235-.876l-7.758-4.486c-.147-.085-.323-.108-.485-.064-.164.045-.304.152-.39.298L87.2 79.727 82.35 71.32c-.177-.306-.57-.41-.874-.234l-7.758 4.486c-.148.086-.255.226-.3.39-.042.164-.02.34.065.486l4.846 8.406h-9.69c-.353 0-.64.287-.64.64v8.974c0 .354.287.64.64.64h9.69l-4.845 8.408c-.084.146-.107.32-.064.485.046.165.154.305.3.39l7.758 4.487c.098.057.208.086.32.086.056 0 .11-.007.166-.023.164-.043.303-.15.388-.297l4.847-8.408 4.844 8.407c.177.306.568.41.874.234l7.758-4.485c.146-.085.254-.225.3-.39.042-.163.02-.338-.065-.484l-4.845-8.407h9.69c.353 0 .64-.288.64-.642v-8.973z" fill="#DA6A26" style="mix-blend-mode:multiply"/><path d="M87.077 61.846c-15.57 0-28.238 12.687-28.238 28.282 0 15.594 12.667 28.282 28.237 28.282 15.57 0 28.237-12.688 28.237-28.282 0-15.595-12.667-28.282-28.237-28.282m0 60.41C69.39 122.255 55 107.842 55 90.127 55 72.412 69.39 58 87.077 58c17.687 0 32.077 14.412 32.077 32.128 0 17.715-14.39 32.127-32.077 32.127" style="mix-blend-mode:multiply" fill="#DA6A26"/></g></svg>