<svg width="127" height="122" viewBox="0 0 127 122" xmlns="http://www.w3.org/2000/svg" xmlns:xlink="http://www.w3.org/1999/xlink"><title>Icon</title><defs><path id="a" d="M0 .002v105.75h81.587V.003z"/></defs><g fill="none" fill-rule="evenodd"><mask id="b" fill="#fff"><use xlink:href="#a"/></mask><path d="M81.587 103.796V25.46c0-.52-.202-1.017-.568-1.386L57.707.574c-.365-.368-.858-.572-1.37-.572H1.94C.87.002 0 .875 0 1.96v101.836c0 1.08.87 1.96 1.943 1.96h52.746l26.9-1.96z" fill="#D93954" mask="url(#b)"/><path fill="#FFF" d="M55.672 2.884V26.68H79.36"/><path d="M110.057 73.066H81.165v-2.404c0-1.548.192-3.11.558-4.624.492-2.014 1.3-3.947 2.4-5.653.547-.856 1.17-1.654 1.857-2.375 1.377-1.447 3.034-2.605 4.94-3.326 1.426-.543 2.996-.846 4.69-.846 2.828 0 5.298.836 7.36 2.235.822.562 1.583 1.21 2.272 1.937.688.72 1.314 1.52 1.86 2.375.822 1.28 1.486 2.687 1.968 4.158.65 1.966.987 4.052.987 6.12v2.403zM98.02 96.432v10.182c0 1.326-1.08 2.403-2.41 2.403-1.328 0-2.407-1.077-2.407-2.404V96.432c-1.435-.836-2.407-2.37-2.407-4.14 0-2.647 2.162-4.806 4.815-4.806 2.654 0 4.816 2.16 4.816 4.807 0 1.77-.972 3.303-2.407 4.14zm26.483-23.366h-9.63v-2.404c0-1.52-.13-2.99-.386-4.413-.505-2.842-1.488-5.466-2.86-7.764-.69-1.15-1.47-2.216-2.335-3.187-.867-.977-1.816-1.852-2.842-2.625-1.02-.77-2.118-1.428-3.274-1.97-1.156-.54-2.37-.958-3.636-1.24-1.266-.285-2.58-.434-3.93-.434-1.347 0-2.662.15-3.928.434-1.267.283-2.48.7-3.636 1.24-1.156.543-2.254 1.2-3.274 1.97-1.026.774-1.975 1.65-2.84 2.625-.868.97-1.648 2.037-2.337 3.186-1.372 2.298-2.355 4.922-2.86 7.763-.255 1.422-.386 2.893-.386 4.412v2.404h-9.63c-1.33 0-2.41 1.076-2.41 2.403v43.262c0 1.326 1.08 2.403 2.41 2.403h57.783c1.33 0 2.408-1.077 2.408-2.403V75.47c0-1.328-1.078-2.404-2.407-2.404z" fill="#D93954" style="mix-blend-mode:multiply"/></g></svg>