<svg width="150" height="123" viewBox="0 0 150 123" xmlns="http://www.w3.org/2000/svg"><title>Icon</title><g fill="#736B54" fill-rule="evenodd"><path d="M87.212 25.508H76.586V14.773c0-1.185-.953-2.147-2.126-2.147H27.148c-1.173 0-2.125-.962-2.125-2.147V8.33H.07V66.3c0 .486.064.98.158 1.478.012.073.02.142.038.215.102.476.246.953.425 1.425.035.086.07.172.103.258.19.472.416.945.676 1.4.037.07.08.133.118.197.57.954 1.28 1.855 2.1 2.654.055.052.11.108.165.163.4.374.83.717 1.27 1.035.078.056.155.108.23.16.456.308.932.583 1.42.82.065.03.128.055.192.085.52.232 1.05.434 1.598.57 0 0 .005.005.01.005v-4.531c-.048-.02-.09-.05-.137-.073-.102-.05-.2-.116-.298-.17-.242-.14-.48-.285-.705-.452-.102-.078-.204-.15-.306-.232-.234-.19-.455-.395-.668-.61-.07-.07-.137-.13-.2-.197-.268-.287-.515-.592-.736-.905-.05-.073-.09-.146-.136-.22-.162-.25-.31-.506-.442-.764-.055-.106-.102-.214-.15-.32-.1-.24-.186-.477-.258-.714-.03-.103-.064-.206-.09-.305-.076-.33-.127-.656-.127-.97V14.774c0-1.185.953-2.147 2.126-2.147h12.2c1.174 0 2.126.962 2.126 2.147v2.147h51.561v8.587H19.2c-1.174 0-2.126.963-2.126 2.148V66.3c0 2.084-1.922 4.772-4.25 5.897-.69.33-1.408.545-2.127.545-1.173 0-2.125.962-2.125 2.147 0 1.184.952 2.146 2.125 2.146H71.13c10.382 0 18.208-7.386 18.208-17.176V27.655c0-1.185-.952-2.147-2.126-2.147"/><path d="M141.308 61.08h-4.25V50.343c0-1.185-.953-2.147-2.127-2.147H87.62c-1.174 0-2.126-.96-2.126-2.147v-2.147H60.54v57.969c0 .486.064.98.157 1.478.012.073.02.14.037.214.102.477.247.954.425 1.426l.102.258c.192.472.417.944.676 1.4.04.068.08.132.12.197.57.953 1.28 1.855 2.1 2.654.055.05.11.106.165.162.4.373.83.717 1.27 1.035.078.055.154.107.23.158.455.31.932.584 1.42.82.71.318 1.242.52 1.79.658l.008-1.873v-2.653c-.238-.125-.335-.19-.433-.245-.242-.137-.48-.283-.706-.45-.102-.078-.204-.15-.306-.233-.234-.19-.455-.396-.667-.61-.067-.07-.135-.13-.2-.198-.267-.288-.513-.593-.734-.906-.05-.073-.09-.146-.136-.22-.162-.248-.31-.506-.442-.763-.056-.108-.103-.215-.15-.322-.1-.24-.186-.476-.26-.712-.028-.103-.062-.206-.088-.305-.076-.33-.127-.657-.127-.97v-51.53c0-1.184.952-2.146 2.125-2.146h12.2c1.173 0 2.125.962 2.125 2.147v2.147H132.806V61.08H79.67c-1.173 0-2.125.963-2.125 2.148v38.646c0 2.083-1.92 4.77-4.25 5.896-.69.33-1.408.545-2.126.545-1.174 0-2.127.962-2.127 2.147 0 1.186.953 2.147 2.126 2.147H131.603c10.38 0 18.205-7.385 18.205-17.176V63.227c0-1.185-.953-2.147-2.126-2.147h-6.376z" style="mix-blend-mode:multiply"/><path d="M46.93 110.533l-8.62-8.786c-.67-.69-1.76-.69-2.436 0-.673.685-.673 1.796 0 2.485l5.678 5.788h-7.906c-2.737 0-5.17-2.778-5.17-4.968V88.924c0-.97-.773-1.758-1.725-1.758-.95 0-1.723.788-1.723 1.758v16.128c0 4.36 4.19 8.484 8.62 8.484h7.905l-5.678 5.79c-.673.686-.673 1.797 0 2.486.337.34.78.513 1.22.513.44 0 .883-.172 1.217-.513l8.62-8.79c.16-.16.286-.355.373-.573.175-.43.175-.915 0-1.344-.087-.214-.214-.41-.373-.573M97.19 12.433l8.62 8.787c.672.69 1.76.69 2.437 0 .672-.686.672-1.797 0-2.486l-5.678-5.787h7.904c2.738 0 5.172 2.777 5.172 4.968v16.127c0 .97.772 1.758 1.723 1.758.95 0 1.723-.787 1.723-1.758V17.915c0-4.36-4.19-8.484-8.62-8.484h-7.904l5.677-5.79c.672-.686.672-1.797 0-2.486-.338-.34-.78-.513-1.22-.513-.442 0-.883.173-1.218.514l-8.62 8.79c-.158.162-.286.355-.372.573-.176.43-.176.914 0 1.343.086.215.214.412.372.573"/></g></svg>