<svg width="138" height="157" viewBox="0 0 138 157" xmlns="http://www.w3.org/2000/svg" xmlns:xlink="http://www.w3.org/1999/xlink"><title>Icon</title><defs><path id="a" d="M0 .003h90.36v90.165H0z"/><path id="c" d="M0 .002h61.882V61.75H.002z"/></defs><g style="mix-blend-mode:multiply" fill="none" fill-rule="evenodd"><g transform="rotate(10 58.328 304.222)"><mask id="b" fill="#fff"><use xlink:href="#a"/></mask><path d="M45.178 60.112c-8.81 0-15.978-7.178-15.978-16.003 0-8.826 7.167-16.01 15.978-16.01 8.81 0 15.983 7.184 15.983 16.01 0 8.824-7.17 16.002-15.982 16.002m45.093-28.35c.18-.68.086-1.405-.263-2.014l-10.002-17.35c-.36-.613-.94-1.063-1.63-1.238-.686-.18-1.416-.07-2.024.29l-8 4.816c-2.477-1.95-5.682-3.84-9.722-5.726V2.647c0-1.462-1.185-2.65-2.645-2.65H35.975c-1.46 0-2.644 1.188-2.644 2.65v7.538c-5.008 1.436-7.816 3.57-10.625 6.087l-8.562-4.853c-1.26-.71-2.856-.28-3.586.97L.455 29.742c-.355.604-.45 1.33-.27 2.007.175.684.62 1.26 1.227 1.616l8.325 4.837C9.065 42.176 9.055 46.07 9.71 50l-8.382 4.84c-.61.35-1.053.934-1.238 1.612-.18.678-.085 1.398.264 2.007l9.996 17.353c.72 1.25 2.312 1.7 3.576.99l8.758-4.872c2.772 2.49 5.585 4.652 10.647 6.098v9.492c0 1.463 1.185 2.65 2.645 2.65h20.008c1.46 0 2.645-1.187 2.645-2.65v-9.847c4.035-1.886 7.245-3.777 9.726-5.737l7.997 4.82c.604.37 1.334.477 2.02.297.69-.175 1.276-.625 1.635-1.24L90.007 58.46c.35-.604.444-1.33.264-2.008-.18-.678-.623-1.256-1.23-1.61l-8.374-4.837c.667-3.962.667-7.85 0-11.797l8.373-4.837c.607-.353 1.05-.93 1.23-1.61" fill="#CF4D27" mask="url(#b)"/></g><path d="M36.758 98.706c-7.265-2.5-11.135-10.453-8.63-17.73 2.505-7.275 10.453-11.163 17.717-8.66 7.264 2.5 11.138 10.458 8.633 17.734-2.506 7.276-10.456 11.158-17.72 8.656m45.224-10.573c.34-.508.47-1.133.354-1.734l-3.32-17.143c-.123-.61-.475-1.145-.992-1.485-.516-.343-1.15-.46-1.753-.335l-7.963 1.7c-1.487-2.31-3.593-4.78-6.39-7.482l2.242-6.507c.414-1.206-.226-2.52-1.43-2.934l-16.495-5.68c-1.203-.415-2.517.227-2.932 1.433l-2.14 6.214c-4.536-.237-7.458.726-10.487 2.003l-5.682-6.43c-.837-.944-2.275-1.043-3.232-.22L8.508 60.973c-.464.397-.75.968-.793 1.578-.05.614.152 1.216.553 1.682l5.49 6.35c-1.68 3.085-2.795 6.292-3.37 9.72l-8.286 1.61c-.6.116-1.132.47-1.477.977-.34.507-.467 1.128-.352 1.73l3.314 17.144c.24 1.235 1.423 2.058 2.667 1.832l8.604-1.532c1.578 2.84 3.284 5.42 7.047 8.05l-2.695 7.825c-.415 1.205.225 2.52 1.428 2.934l16.495 5.68c1.204.414 2.517-.228 2.932-1.433l2.796-8.118c3.863-.41 7.047-1.057 9.648-1.97l5.225 6.245c.392.477.963.772 1.58.82.618.05 1.23-.155 1.7-.56l13.172-11.468c.46-.4.744-.97.788-1.58.044-.61-.158-1.213-.56-1.678l-5.528-6.364c1.674-3.078 2.778-6.283 3.35-9.726l8.274-1.61c.6-.12 1.132-.47 1.472-.98" fill="#D66450" style="mix-blend-mode:multiply"/><g style="mix-blend-mode:multiply" transform="rotate(14 -321.693 318.668)"><mask id="d" fill="#fff"><use xlink:href="#c"/></mask><path d="M30.94 41.167c-6.035 0-10.943-4.916-10.943-10.96 0-6.043 4.908-10.963 10.942-10.963s10.945 4.92 10.945 10.963c0 6.044-4.91 10.96-10.946 10.96M61.82 21.75c.124-.463.06-.96-.18-1.377l-6.85-11.88c-.246-.422-.644-.73-1.115-.85-.47-.124-.97-.048-1.387.2l-5.48 3.297c-1.696-1.335-3.89-2.63-6.658-3.922V1.813c0-1-.81-1.814-1.81-1.814H24.636c-1 0-1.81.812-1.81 1.813v5.162c-3.43.983-5.354 2.445-7.278 4.168L9.684 7.82c-.862-.486-1.956-.192-2.455.664L.31 20.37c-.24.413-.306.91-.183 1.374.12.468.424.863.84 1.106l5.7 3.313c-.46 2.72-.466 5.387-.017 8.08L.91 37.556c-.417.24-.722.64-.848 1.103-.124.465-.058.958.18 1.375L7.09 51.92c.493.856 1.583 1.164 2.45.678l5.997-3.337c1.898 1.706 3.825 3.186 7.29 4.176v6.5c0 1.002.812 1.815 1.812 1.815H38.34c1 0 1.81-.812 1.81-1.813v-6.744c2.764-1.29 4.962-2.586 6.66-3.93l5.478 3.303c.413.253.912.326 1.383.203.472-.12.874-.43 1.12-.85l6.85-11.885c.24-.413.304-.91.18-1.375-.122-.464-.426-.86-.843-1.103l-5.734-3.312c.457-2.713.457-5.376 0-8.08l5.734-3.31c.417-.244.72-.64.844-1.104" fill="#E0A19B" mask="url(#d)"/></g></g></svg>