<svg width="118" height="118" viewBox="0 0 118 118" xmlns="http://www.w3.org/2000/svg"><title>Icon</title><g fill="#80141D" fill-rule="evenodd"><path d="M58.222 71.702l-15.747 16.35c2.897 7.75 1.128 16.45-4.67 22.467-6.096 6.33-15.306 8.297-23.465 5.003-.616-.25-1.063-.8-1.18-1.455-.12-.655.11-1.33.6-1.782l9.797-8.964-.154-8.83-8.812.155-8.585 10.135c-.43.51-1.09.76-1.75.668-.66-.098-1.226-.527-1.496-1.135-1.2-2.718-1.81-5.577-1.86-8.41-.097-5.588 1.983-11.093 6.027-15.292 5.79-6.016 14.388-8.092 22.222-5.464L44.9 58.8l12.836-13.382 15.678-16.32c-2.916-7.803-1.182-16.494 4.58-22.47C84.06.327 93.2-1.636 101.278 1.625c.62.253 1.072.81 1.184 1.475.116.663-.124 1.34-.627 1.783l-10.133 8.97.166 9.54 9.508-.167 8.585-10.47c.426-.52 1.09-.783 1.76-.69.663.09 1.236.518 1.506 1.135 3.556 8.03 1.957 16.966-4.174 23.33-5.79 6.015-14.39 8.092-22.227 5.46L71.082 58.34 58.222 71.7z"/><path d="M88.35 74.328c7.802-2.76 16.47-.84 22.383 5.06 6.225 6.207 8.03 15.45 4.594 23.55-.26.612-.82 1.05-1.476 1.154-.655.108-1.327-.132-1.77-.63l-8.79-9.953h-8.83v8.812l9.982 8.762c.5.438.742 1.104.637 1.762-.11.658-.548 1.216-1.162 1.475-2.737 1.15-5.607 1.713-8.442 1.713-5.588 0-11.055-2.176-15.183-6.292-5.914-5.892-7.84-14.527-5.075-22.313L59.146 71.393 45.99 58.325l-16.045-15.96c-7.852 2.78-16.51.894-22.386-4.972-6.195-6.176-7.997-15.35-4.595-23.368.264-.616.827-1.057 1.495-1.158.664-.104 1.336.147 1.77.66l8.792 10.286h9.54v-9.51L14.246 5.54c-.512-.434-.765-1.104-.66-1.77.1-.662.54-1.227 1.16-1.487C22.836-1.133 31.744.62 38 6.863c5.914 5.893 7.84 14.528 5.072 22.318l16.072 16.026 29.21 29.122z" style="mix-blend-mode:multiply"/></g></svg>